<?xml version="1.0" encoding="utf-8"?>
<!-- Generator: Adobe Illustrator 24.0.2, SVG Export Plug-In . SVG Version: 6.00 Build 0)  -->
<svg version="1.1" id="Layer_3" xmlns="http://www.w3.org/2000/svg" xmlns:xlink="http://www.w3.org/1999/xlink" x="0px" y="0px"
	 viewBox="0 0 48 48" style="enable-background:new 0 0 48 48;" xml:space="preserve">
<style type="text/css">
	.st0{fill:#D53426;}
	.st1{fill:#8E6666;}
	.st2{fill:#C8ACB8;}
	.st3{fill:#686886;}
	.st4{fill:#FFF2F3;}
	.st5{fill:#DBD0D1;}
	.st6{fill:#C6A19A;}
	.st7{fill:#B26886;}
	.st8{fill:#B6ACB8;}
	.st9{fill:#FCC960;}
</style>
<path class="st0" d="M30,44.6c-1.7,2.7-7.6,2.3-14.3-1.9s-9.8-8.9-8.1-11.7s7.6-2.4,14.2,1.8S31.7,41.9,30,44.6z"/>
<path class="st1" d="M11,25.4l-1.8,7c1.3,4.9,16,13.7,23.4,10.4l-2.2-3.4L11,25.4z"/>
<path class="st2" d="M40.4,19.5c0,9.1-0.9,20.9-10,20.9S7.6,32.8,7.6,19.5C7.6,10.4,14.9,3,24,3C33.1,3,40.4,10.4,40.4,19.5z"/>
<path class="st0" d="M40.5,34.9c0,0-2.9,5.4-4.5,6.5c-3.3,2.3-8.8,3.1-13.7-5.5c-0.7-1.2-4.2-2.8-7.3-4.2c-2.6-1.2-4.2-3.9-4.1-6.8
	l0,0C15.6,21.9,29.1,29.6,40.5,34.9z"/>
<circle class="st3" cx="26.3" cy="35.9" r="0.5"/>
<circle class="st3" cx="28.2" cy="36.8" r="0.5"/>
<circle class="st3" cx="26.7" cy="38.1" r="0.5"/>
<circle class="st3" cx="28.6" cy="39" r="0.5"/>
<path class="st4" d="M11.8,15.8c0,0,5.4-12.8,16.9-13.4c0.2,0,0.4,0,0.7,0c2.9,0.3,6.3,1.8,7.9,3.6l4.5,19.8l-0.9,8.2
	c-0.1,1.3-1.2,2.2-2.5,2.3c-6.6,0.1-14.7-3.1-21.6-8.9c-1.5-1.3-2.6-3-3.1-4.9L11.8,15.8z"/>
<path class="st5" d="M16.1,20.9c0,2.6-2.1,4.8-4.7,4.8c-0.1,0-0.3,0-0.4,0c-2.1-0.1-3.6-2.1-3.6-4.8s1.2-4.6,3.3-5
	C14.3,15.3,16.1,18.3,16.1,20.9z"/>
<path class="st1" d="M10.2,16.9c-0.2,0-0.4-0.1-0.5-0.3L6.1,6C6,5.7,6.2,5.4,6.4,5.3C6.7,5.2,7,5.4,7.1,5.6l3.6,10.6
	c0.1,0.3-0.1,0.5-0.3,0.6C10.3,16.8,10.3,16.9,10.2,16.9L10.2,16.9z"/>
<ellipse class="st0" cx="10.5" cy="20.9" rx="3.2" ry="4.4"/>
<path class="st5" d="M10.5,20.7c0,0.9-0.4,1.7-0.9,1.7c-0.1,0-0.2,0-0.2,0c-0.5-0.4-0.8-1-0.7-1.6c0-0.9,0.4-1.7,1-1.7
	c0.3,0,0.6,0.2,0.7,0.6C10.5,20,10.5,20.3,10.5,20.7z"/>
<path class="st6" d="M16.8,14.8c0,0,5.5-9,16.7-9.6c5.6-0.3,3.8,3,3.8,3L16.8,14.8z"/>
<path class="st7" d="M16.8,14.8c2.4,2.4,3.3,5.9,2.3,9.1c-0.3,1.4,0.2,2.8,1.2,3.7c4.4,3.8,10.8,6,15.9,6.6c1.8,0.2,3.5-0.7,4.4-2.3
	c4.3-7.8,3.1-18.8-4.2-24.6c0,0,0,0,0,0C30.5,6.7,22.1,10.4,16.8,14.8z"/>
<path class="st8" d="M40.3,24.7C40.3,24.7,40.3,24.7,40.3,24.7c-0.3,0-0.5-0.3-0.5-0.6c0,0,0,0,0,0c0.1-0.5,0.1-1,0.2-1.6
	c0-0.3,0.3-0.5,0.5-0.5c0.3,0,0.5,0.3,0.5,0.5c0,0.5-0.1,1.1-0.2,1.7C40.8,24.6,40.6,24.7,40.3,24.7z"/>
<path class="st8" d="M40.5,20.5c-0.3,0-0.5-0.2-0.5-0.5c-0.3-4-1.7-7.2-4-9c-0.2-0.2-0.2-0.5-0.1-0.7s0.5-0.2,0.7-0.1c0,0,0,0,0,0
	c2.5,2,4.1,5.5,4.3,9.7C41,20.2,40.8,20.4,40.5,20.5C40.5,20.5,40.5,20.5,40.5,20.5z"/>
<ellipse class="st9" cx="6.6" cy="5.8" rx="1.8" ry="1.4"/>
<path class="st3" d="M35.3,39.1c-0.7,0-1.5-0.1-2.2-0.3c-0.3-0.1-0.4-0.4-0.3-0.6c0.1-0.3,0.4-0.4,0.6-0.3c0.9,0.3,1.8,0.4,2.8,0.2
	c0.3-0.1,0.5,0.1,0.6,0.4c0.1,0.3-0.1,0.5-0.4,0.6c0,0,0,0,0,0C36.1,39,35.7,39.1,35.3,39.1z"/>
<path class="st3" d="M32,38.3c-0.1,0-0.1,0-0.2,0c-0.1-0.1-0.3-0.1-0.4-0.2c-0.2-0.1-0.4-0.4-0.2-0.7c0.1-0.2,0.4-0.4,0.7-0.2l0,0
	c0.1,0.1,0.3,0.1,0.4,0.2c0.3,0.1,0.4,0.4,0.3,0.7C32.4,38.2,32.2,38.3,32,38.3L32,38.3z"/>
<path class="st3" d="M34.3,40.8c-1.1,0-2.2-0.4-3.2-0.9c-0.2-0.1-0.3-0.4-0.2-0.7c0.1-0.2,0.4-0.3,0.7-0.2c0,0,0,0,0,0
	c1.1,0.7,2.4,0.9,3.6,0.7c0.3-0.1,0.5,0.1,0.6,0.3c0.1,0.3-0.1,0.5-0.3,0.6C35.1,40.8,34.7,40.8,34.3,40.8z"/>
</svg>
